<svg xmlns="http://www.w3.org/2000/svg">
    <symbol id="clock" viewBox="0 0 32 32" fill="none">
        <path fill-rule="evenodd" clip-rule="evenodd"
            d="M29.3334 16C29.3334 23.3638 23.3638 29.3334 16 29.3334C8.63622 29.3334 2.66669 23.3638 2.66669 16C2.66669 8.63622 8.63622 2.66669 16 2.66669C23.3638 2.66669 29.3334 8.63622 29.3334 16ZM17 8C17 7.44772 16.5523 7 16 7C15.4477 7 15 7.44772 15 8V16C15 16.3788 15.214 16.725 15.5528 16.8944L20.8861 19.5611C21.3801 19.8081 21.9808 19.6079 22.2278 19.1139C22.4748 18.6199 22.2745 18.0192 21.7805 17.7722L17 15.382V8Z"
            fill="#E9F7F4" />
    </symbol>
</svg>